<svg xmlns="http://www.w3.org/2000/svg" viewBox="0 0 901 410" role="img" aria-labelledby="title desc">
<title>Moto Track stacked logo - dark theme</title>
<desc>Transparent SVG logo for dark backgrounds.</desc>
<g fill="#DC2626" fill-rule="evenodd">
  <path d="M 813 63 L 588 63 L 566 67 L 545 75 L 528 85 L 494 112 L 451 152 L 443 168 L 442 180 L 453 200 L 454 220 L 450 230 L 438 244 L 431 248 L 420 250 L 420 244 L 427 223 L 425 218 L 403 213 L 391 242 L 383 233 L 378 220 L 378 202 L 383 188 L 399 169 L 511 76 L 544 57 L 579 47 L 702 46 L 733 8 L 578 8 L 552 12 L 532 18 L 494 38 L 384 125 L 378 118 L 318 13 L 225 13 L 124 286 L 208 286 L 272 111 L 362 273 L 380 283 L 399 287 L 415 286 L 433 281 L 448 272 L 461 259 L 469 245 L 472 234 L 473 198 L 478 187 L 487 176 L 546 129 L 567 120 L 593 117 L 592 125 L 533 286 L 617 286 L 679 118 L 775 117 Z"/>
  <path d="M 814 8 L 788 8 L 758 46 L 784 45 Z"/>
  <path d="M 772 8 L 747 8 L 716 45 L 741 46 Z"/>
  <path d="M 855 8 L 830 8 L 800 46 L 825 46 Z"/>
  <path d="M 656 395 L 677 395 L 684 385 L 684 380 L 666 380 Z"/>
</g>
<g fill="#FAFAFA" fill-rule="evenodd">
  <path d="M 155 333 L 147 341 L 132 384 L 132 392 L 134 396 L 142 401 L 198 401 L 207 397 L 217 385 L 231 344 L 228 333 L 222 329 L 164 329 Z M 166 345 L 207 344 L 211 349 L 202 379 L 197 385 L 156 386 L 151 381 L 161 349 Z"/>
  <path d="M 342 334 L 333 347 L 322 380 L 322 395 L 331 401 L 386 401 L 399 394 L 405 385 L 418 348 L 419 340 L 416 333 L 409 329 L 352 329 Z M 355 345 L 396 344 L 399 349 L 391 378 L 386 385 L 345 386 L 340 381 L 350 352 Z"/>
  <path d="M 33 329 L 8 401 L 29 401 L 45 357 L 47 358 L 60 386 L 69 386 L 102 357 L 102 363 L 88 401 L 110 400 L 134 329 L 109 329 L 73 360 L 57 329 Z"/>
  <path d="M 556 329 L 550 346 L 603 346 L 606 349 L 605 355 L 599 362 L 566 362 L 567 353 L 547 354 L 531 401 L 551 401 L 560 379 L 580 379 L 589 401 L 611 401 L 603 380 L 613 375 L 619 369 L 628 345 L 627 335 L 619 329 Z"/>
  <path d="M 815 329 L 791 401 L 811 401 L 820 376 L 830 373 L 848 401 L 872 401 L 849 362 L 892 329 L 865 329 L 828 357 L 827 354 L 835 329 Z"/>
  <path d="M 742 331 L 730 344 L 717 383 L 718 394 L 728 401 L 781 401 L 786 383 L 742 383 L 739 378 L 748 351 L 752 347 L 798 346 L 804 329 L 748 329 Z"/>
  <path d="M 698 329 L 675 329 L 669 332 L 616 401 L 639 401 L 680 347 L 682 352 L 686 400 L 708 401 Z"/>
  <path d="M 253 401 L 274 401 L 292 348 L 294 346 L 323 346 L 329 329 L 247 329 L 242 346 L 271 347 Z"/>
  <path d="M 471 401 L 491 401 L 509 348 L 511 346 L 540 346 L 546 329 L 465 329 L 459 346 L 489 347 Z"/>
  <circle cx="181.5" cy="365" r="6.5" fill="none" stroke="#FAFAFA" stroke-width="2"/>
  <circle cx="370.5" cy="365" r="6.5" fill="none" stroke="#FAFAFA" stroke-width="2"/>
</g>
</svg>
