<svg xmlns="http://www.w3.org/2000/svg" viewBox="0 0 752 408" role="img" aria-labelledby="title desc">
<title>Moto Track MT symbol - black</title>
<desc>Transparent MT symbol SVG.</desc>
<g fill="#000000" fill-rule="evenodd">
  <path d="M 699 65 L 474 65 L 452 69 L 431 77 L 414 87 L 380 114 L 337 154 L 329 170 L 328 182 L 339 202 L 340 222 L 336 232 L 324 246 L 306 252 L 313 225 L 311 220 L 289 215 L 277 244 L 269 235 L 264 222 L 264 204 L 269 190 L 285 171 L 397 78 L 430 59 L 465 49 L 588 48 L 619 10 L 464 10 L 438 14 L 418 20 L 380 40 L 270 127 L 264 120 L 204 15 L 111 15 L 10 288 L 94 288 L 158 113 L 248 275 L 266 285 L 285 289 L 301 288 L 319 283 L 334 274 L 347 261 L 355 247 L 358 236 L 359 200 L 364 189 L 373 178 L 432 131 L 453 122 L 479 119 L 478 127 L 419 288 L 503 288 L 565 120 L 661 119 Z"/>
  <path d="M 700 10 L 674 10 L 644 48 L 670 47 Z"/>
  <path d="M 658 10 L 633 10 L 602 47 L 627 48 Z"/>
  <path d="M 741 10 L 716 10 L 686 48 L 711 48 Z"/>
  <path d="M 542 397 L 563 397 L 570 387 L 570 382 L 552 382 Z"/>
</g>
</svg>
