<svg xmlns="http://www.w3.org/2000/svg" viewBox="0 0 845 160" role="img" aria-labelledby="title desc">
<title>Moto Track horizontal logo - black</title>
<desc>Transparent horizontal lockup SVG.</desc>
<g transform="translate(14.000 23.000) scale(0.269608)" fill="#000000" fill-rule="evenodd">
  <path d="M 699 65 L 474 65 L 452 69 L 431 77 L 414 87 L 380 114 L 337 154 L 329 170 L 328 182 L 339 202 L 340 222 L 336 232 L 324 246 L 306 252 L 313 225 L 311 220 L 289 215 L 277 244 L 269 235 L 264 222 L 264 204 L 269 190 L 285 171 L 397 78 L 430 59 L 465 49 L 588 48 L 619 10 L 464 10 L 438 14 L 418 20 L 380 40 L 270 127 L 264 120 L 204 15 L 111 15 L 10 288 L 94 288 L 158 113 L 248 275 L 266 285 L 285 289 L 301 288 L 319 283 L 334 274 L 347 261 L 355 247 L 358 236 L 359 200 L 364 189 L 373 178 L 432 131 L 453 122 L 479 119 L 478 127 L 419 288 L 503 288 L 565 120 L 661 119 Z"/>
  <path d="M 700 10 L 674 10 L 644 48 L 670 47 Z"/>
  <path d="M 658 10 L 633 10 L 602 47 L 627 48 Z"/>
  <path d="M 741 10 L 716 10 L 686 48 L 711 48 Z"/>
  <path d="M 542 397 L 563 397 L 570 387 L 570 382 L 552 382 Z"/>
</g>
<g transform="translate(244.745 69.000) scale(0.651685)" fill="#000000" fill-rule="evenodd">
  <path d="M 155 12 L 147 20 L 132 63 L 132 71 L 134 75 L 142 80 L 198 80 L 207 76 L 217 64 L 231 23 L 228 12 L 222 8 L 164 8 Z"/>
  <path d="M 342 13 L 333 26 L 322 59 L 322 74 L 331 80 L 386 80 L 399 73 L 405 64 L 418 27 L 419 19 L 416 12 L 409 8 L 352 8 Z"/>
  <path d="M 33 8 L 8 80 L 29 80 L 45 36 L 47 37 L 60 65 L 69 65 L 102 36 L 102 42 L 88 80 L 110 79 L 134 8 L 109 8 L 73 39 L 57 8 Z"/>
  <path d="M 556 8 L 550 25 L 603 25 L 606 28 L 605 34 L 599 41 L 566 41 L 567 32 L 547 33 L 531 80 L 551 80 L 560 58 L 580 58 L 583 62 L 589 80 L 611 80 L 603 59 L 613 54 L 619 48 L 628 24 L 627 14 L 619 8 Z"/>
  <path d="M 815 8 L 791 80 L 811 80 L 820 55 L 830 52 L 848 80 L 872 80 L 849 41 L 892 8 L 865 8 L 828 36 L 827 33 L 835 8 Z"/>
  <path d="M 742 10 L 730 23 L 717 62 L 718 73 L 728 80 L 781 80 L 786 62 L 742 62 L 739 57 L 748 30 L 752 26 L 798 25 L 804 8 L 748 8 Z"/>
  <path d="M 698 8 L 675 8 L 669 11 L 616 80 L 639 80 L 680 26 L 682 31 L 686 79 L 708 80 Z"/>
  <path d="M 253 80 L 274 80 L 292 27 L 294 25 L 323 25 L 329 8 L 247 8 L 242 25 L 271 26 Z"/>
  <path d="M 471 80 L 491 80 L 509 27 L 511 25 L 540 25 L 546 8 L 465 8 L 459 25 L 489 26 Z"/>
  <path d="M 168 26 L 204 25 L 207 28 L 199 56 L 195 61 L 158 62 L 155 59 L 164 30 Z"/>
  <path d="M 357 26 L 392 25 L 395 28 L 395 33 L 388 54 L 383 61 L 347 62 L 344 59 L 352 32 Z"/>
</g>
</svg>
